<svg width="750" height="700" viewBox="0 0 778 669" fill="none" xmlns="http://www.w3.org/2000/svg">
<path d="M617.484 606.853H227.948V611.345H617.484V606.853Z" fill="#1B1B1B"/>
<path d="M220.036 578.363H40.0801V582.855H220.036V578.363Z" fill="#1B1B1B"/>
<path d="M777.45 555.915H597.493V560.407H777.45V555.915Z" fill="#1B1B1B"/>
<path d="M737.323 264.457C737.323 264.457 739.603 265.44 743.473 266.883C744.218 267.16 744.885 267.404 745.475 267.615C745.692 267.687 745.926 267.686 746.143 267.613C746.359 267.54 746.546 267.398 746.674 267.209C746.802 267.02 746.865 266.794 746.853 266.566C746.842 266.338 746.756 266.12 746.608 265.945L738.073 256.042C737.68 255.573 737.119 255.276 736.51 255.213C735.902 255.151 735.292 255.328 734.812 255.707C734.211 256.168 733.746 256.783 733.466 257.486C733.186 258.19 733.102 258.956 733.221 259.704L737.323 264.457Z" fill="#3AB3E7"/>
<path d="M528.562 186.115C527.337 184.884 526.21 183.558 525.193 182.15C524.832 181.553 524.275 181.1 523.616 180.87C522.958 180.64 522.239 180.646 521.585 180.888C521.585 180.888 519.807 191.62 523.05 193.128C526.292 194.637 528.562 186.115 528.562 186.115Z" fill="#F0B7A4"/>
<path d="M647.383 255.586C647.383 255.586 646.715 304.707 647.383 312.504C648.052 320.301 661.665 354.041 661.665 354.041H667.457C667.457 354.041 665.866 325.645 665.866 312.95C665.866 300.255 672.323 269.297 672.323 269.297L647.383 255.586Z" fill="#151515"/>
<path d="M737.803 264.4C737.803 264.4 721.099 275.973 714.645 283.777C708.191 291.582 704.182 291.128 692.824 284.887C681.465 278.646 636.939 257.011 636.939 257.011L659.349 221.572C663.373 224.567 662.301 227.197 666.765 232.771C671.229 238.344 702.39 269.52 705.958 268.624C709.526 267.729 733.126 259.057 733.126 259.057L734.997 261.195L735.091 261.302L737.803 264.4Z" fill="#1B1B1B"/>
<path d="M572.327 189.541C572.327 189.541 563.751 196.578 559.749 197.58C555.747 198.582 528.569 186.109 528.569 186.109L525.2 190.838C525.2 190.838 542.156 208.938 553.736 210.385C565.316 211.833 583.026 200.921 583.026 200.921C583.026 200.921 577.457 185.887 575.565 186.109C573.673 186.331 572.327 189.541 572.327 189.541Z" fill="#B6131A"/>
<path d="M557.628 169.294C557.628 169.294 564.42 186.663 568.542 190.229C569.697 191.247 571.123 191.905 572.646 192.123C574.169 192.34 575.723 192.108 577.116 191.454L582.573 198.248C582.573 198.248 597.273 194.907 595.487 184.217C593.702 173.527 580.454 166.063 580.454 166.063C580.454 166.063 575.109 160.83 570.32 162.388C565.532 163.946 557.628 169.294 557.628 169.294Z" fill="#F1D1B5"/>
<path d="M598.051 188.335C598.051 188.335 607.071 180.209 599.163 172.079C599.163 172.079 602.504 165.955 598.051 160.833C593.597 155.71 587.359 158.382 587.359 158.382C587.359 158.382 588.472 147.024 580.679 146.134C572.886 145.244 570.211 150.699 570.211 150.699C570.211 150.699 564.866 134.775 553.174 137.335C541.481 139.896 538.809 163.838 551.836 169.741C564.864 175.643 575.891 165.062 575.891 165.062C575.891 165.062 572.994 174.749 583.686 177.088C583.686 177.088 585.58 171.855 589.525 173.748C593.47 175.64 591.584 180.987 589.525 182.657C589.525 182.657 590.75 188.576 594.341 189.347C597.933 190.118 598.051 188.335 598.051 188.335Z" fill="#1B1B1B"/>
<path d="M659.354 221.577C659.354 221.577 645.972 245.509 636.941 257.011C636.69 257.33 636.346 257.563 635.956 257.677C635.567 257.79 635.151 257.779 634.768 257.645C634.385 257.511 634.054 257.261 633.82 256.929C633.586 256.597 633.462 256.201 633.465 255.795V255.795C633.465 255.699 633.447 255.605 633.411 255.516C633.374 255.428 633.321 255.348 633.253 255.28C630.416 252.493 599.939 222.638 594.211 220.243C588.197 217.738 563.475 226.423 555.625 224.752C547.774 223.081 519.711 193.684 519.711 193.684L523.052 189.676C523.052 189.676 549.778 204.376 556.96 205.713C564.142 207.05 585.858 188.675 600.557 188.344C615.256 188.013 659.354 221.577 659.354 221.577Z" fill="url(#paint0_linear)"/>
<path d="M412.537 213.131L410.315 206.259C409.935 205.083 409.79 203.844 409.889 202.612C409.988 201.38 410.328 200.179 410.891 199.079C411.454 197.979 412.228 197 413.169 196.199C414.11 195.398 415.2 194.79 416.376 194.41C416.505 194.367 416.633 194.329 416.763 194.293L508.887 168.839C511.225 168.193 513.723 168.475 515.858 169.626C517.994 170.777 519.603 172.707 520.35 175.015L522.57 181.887C522.95 183.063 523.095 184.302 522.997 185.534C522.898 186.766 522.558 187.966 521.995 189.067C521.433 190.167 520.659 191.146 519.718 191.947C518.777 192.748 517.688 193.356 516.512 193.737C516.383 193.779 516.253 193.817 516.123 193.854L423.997 219.307C421.659 219.952 419.162 219.67 417.027 218.519C414.892 217.369 413.284 215.438 412.537 213.131V213.131Z" fill="#1B1B1B"/>
<path d="M735.088 261.3C733.899 262.142 732.496 263.118 730.906 264.226C727.98 266.258 724.413 268.703 720.256 271.413C718.172 272.775 715.939 274.192 713.562 275.635C711.062 277.18 708.474 278.576 705.811 279.817C705.087 280.154 704.336 280.431 703.566 280.645C703.374 280.705 703.177 280.745 702.977 280.765L702.696 280.819C702.558 280.819 702.419 280.81 702.282 280.792C701.855 280.696 701.442 280.548 701.052 280.35C699.604 279.582 698.207 278.721 696.87 277.772C694.145 275.901 691.432 273.842 688.651 271.705C683.111 267.428 677.358 262.805 671.466 257.949C664.184 251.936 656.58 245.671 648.882 239.307C649.11 238.946 649.332 238.586 649.55 238.225C657.273 244.639 664.891 250.986 672.195 257.053C678.091 261.904 683.768 266.608 689.247 270.938C691.987 273.103 694.685 275.174 697.358 277.076C698.647 278.014 699.998 278.864 701.4 279.622C701.713 279.786 702.045 279.912 702.388 279.996C702.446 280.009 702.504 280.018 702.562 280.023L702.862 279.983C703.047 279.963 703.231 279.927 703.41 279.876C704.127 279.676 704.828 279.421 705.506 279.114C708.149 277.91 710.723 276.561 713.216 275.072C715.622 273.682 717.88 272.307 719.978 270.996C724.189 268.364 727.796 265.998 730.759 264.02C732.363 262.952 733.779 262.002 734.982 261.175L735.088 261.3Z" fill="#09293D"/>
<path d="M635.43 226.485C629.12 221.338 622.797 216.208 616.414 211.331C613.215 208.904 610.033 206.513 606.682 204.385C605.832 203.845 604.949 203.358 604.039 202.928C603.518 202.669 602.95 202.519 602.37 202.488C601.856 202.53 601.347 202.605 600.843 202.713C598.946 203.166 597.079 203.739 595.254 204.426C588.067 207.057 581.301 209.993 574.675 212.172C571.49 213.28 568.217 214.114 564.89 214.664C563.334 214.923 561.75 214.957 560.185 214.766C559.812 214.715 559.444 214.63 559.086 214.514C558.912 214.456 558.682 214.392 558.556 214.339L558.03 214.101C557.328 213.787 556.632 213.485 555.962 213.122C550.572 210.323 545.845 207.301 541.645 204.682C537.453 202.03 533.841 199.656 530.873 197.69C524.942 193.746 521.59 191.432 521.59 191.432C521.59 191.432 524.884 193.813 530.742 197.87C533.671 199.896 537.239 202.342 541.374 205.081C545.531 207.795 550.186 210.912 555.613 213.784C556.282 214.158 556.996 214.477 557.71 214.813L558.249 215.062C558.483 215.156 558.633 215.194 558.831 215.264C559.221 215.395 559.622 215.492 560.028 215.554C561.675 215.78 563.345 215.766 564.988 215.512C568.375 214.993 571.71 214.184 574.959 213.094C581.656 210.973 588.488 208.121 595.622 205.514C597.398 204.853 599.214 204.303 601.059 203.867C601.503 203.774 601.953 203.709 602.406 203.673C602.798 203.719 603.178 203.836 603.529 204.017C604.386 204.428 605.217 204.891 606.017 205.404C609.293 207.5 612.455 209.896 615.634 212.32C621.97 217.203 628.275 222.352 634.559 227.516L648.858 239.321C649.084 238.957 649.307 238.593 649.529 238.233L635.43 226.485Z" fill="white"/>
<path d="M507.163 179.066C506.604 178.505 505.899 178.114 505.128 177.935C504.357 177.756 503.552 177.798 502.804 178.055C502.056 178.313 501.395 178.775 500.897 179.39C500.399 180.004 500.084 180.747 499.987 181.532C499.891 182.317 500.018 183.114 500.352 183.831C500.687 184.548 501.217 185.156 501.88 185.586C502.544 186.017 503.316 186.252 504.107 186.264C504.898 186.277 505.677 186.068 506.354 185.659L508.734 188.04C508.828 188.134 508.94 188.209 509.063 188.26C509.186 188.31 509.318 188.337 509.451 188.337C509.585 188.337 509.717 188.31 509.84 188.259C509.963 188.208 510.075 188.133 510.169 188.039C510.263 187.945 510.338 187.833 510.389 187.71C510.44 187.587 510.466 187.455 510.466 187.322C510.466 187.188 510.44 187.056 510.388 186.933C510.337 186.81 510.263 186.698 510.168 186.604V186.604L507.789 184.224C508.275 183.417 508.478 182.471 508.364 181.537C508.251 180.602 507.828 179.732 507.163 179.066V179.066ZM505.728 183.598C505.422 183.904 505.031 184.112 504.606 184.197C504.182 184.281 503.741 184.238 503.341 184.072C502.941 183.906 502.598 183.626 502.358 183.265C502.117 182.905 501.989 182.482 501.989 182.048C501.989 181.615 502.117 181.192 502.358 180.831C502.598 180.471 502.941 180.19 503.341 180.024C503.741 179.859 504.182 179.815 504.606 179.9C505.031 179.984 505.422 180.193 505.728 180.499C506.138 180.91 506.368 181.467 506.368 182.047C506.368 182.627 506.138 183.184 505.728 183.595V183.598Z" fill="#CDD9FF"/>
<path d="M519.708 193.682C518.776 193.221 518.011 192.479 517.522 191.56C517.033 190.642 516.843 189.593 516.981 188.562C517.542 184.997 514.735 181.45 516.918 180.888C519.101 180.327 521.993 184.332 523.057 189.677L519.708 193.682Z" fill="#F1D1B5"/>
<path d="M582.625 186.607C582.07 187.738 581.298 188.748 580.353 189.58C579.407 190.412 578.307 191.049 577.115 191.455L580.237 195.348L582.809 186.685C582.814 186.673 582.817 186.66 582.817 186.647C582.817 186.633 582.814 186.62 582.809 186.608C582.804 186.596 582.797 186.585 582.788 186.576C582.778 186.567 582.767 186.56 582.755 186.555C582.743 186.549 582.73 186.545 582.717 186.545C582.704 186.544 582.691 186.547 582.678 186.551C582.666 186.556 582.655 186.564 582.646 186.574C582.637 186.583 582.629 186.595 582.625 186.607V186.607Z" fill="#F0B7A4"/>
<path d="M661.664 354.038C661.664 354.038 659.605 355.04 656.265 356.883C655.622 357.238 655.049 357.558 654.546 357.841C654.362 357.948 654.218 358.111 654.137 358.307C654.056 358.503 654.042 358.721 654.098 358.926C654.153 359.13 654.274 359.311 654.442 359.44C654.611 359.569 654.817 359.639 655.029 359.638H667.094C667.658 359.646 668.204 359.434 668.614 359.046C669.025 358.658 669.268 358.126 669.293 357.562C669.332 356.864 669.181 356.169 668.858 355.55C668.535 354.93 668.05 354.41 667.456 354.043L661.664 354.038Z" fill="#3AB3E7"/>
<path d="M725.371 359.634H652.301C651.307 359.634 650.501 360.44 650.501 361.435V363.597C650.501 364.592 651.307 365.398 652.301 365.398H725.371C726.365 365.398 727.171 364.592 727.171 363.597V361.435C727.171 360.44 726.365 359.634 725.371 359.634Z" fill="#1B1B1B"/>
<path d="M660.815 364.564L636.066 557.975L639.037 558.356L663.786 364.944L660.815 364.564Z" fill="#1B1B1B"/>
<path d="M716.825 364.568L713.854 364.949L738.617 558.377L741.588 557.997L716.825 364.568Z" fill="#1B1B1B"/>
<path d="M736.813 530.605H640.854V533.599H736.813V530.605Z" fill="#1B1B1B"/>
<path d="M733.099 501.647H644.582V504.642H733.099V501.647Z" fill="#1B1B1B"/>
<path d="M729.384 472.703H648.297V475.697H729.384V472.703Z" fill="#1B1B1B"/>
<path d="M725.67 443.745H652.012V446.739H725.67V443.745Z" fill="#1B1B1B"/>
<path d="M721.953 414.786H655.727V417.781H721.953V414.786Z" fill="#1B1B1B"/>
<path d="M273.087 216.794H482.889V563.099C482.889 575.502 477.962 587.397 469.191 596.167C460.421 604.937 448.527 609.864 436.124 609.864H319.851C307.448 609.864 295.553 604.937 286.783 596.167C278.013 587.397 273.086 575.502 273.086 563.099V216.794H273.087Z" fill="#FFE9E9"/>
<path d="M488.448 198.2V246.882H277.804V173.185C284.053 167.432 292.241 164.244 300.735 164.257H454.51C463.511 164.258 472.143 167.834 478.507 174.199C484.871 180.564 488.447 189.196 488.447 198.197L488.448 198.2Z" fill="url(#paint1_linear)"/>
<path d="M454.505 164.257H300.731C291.73 164.262 283.099 167.839 276.735 174.204C270.37 180.568 266.793 189.199 266.788 198.2V575.915C266.788 580.372 267.665 584.785 269.37 588.903C271.076 593.021 273.575 596.763 276.727 599.915C279.878 603.067 283.619 605.567 287.737 607.273C291.855 608.979 296.268 609.857 300.725 609.857H454.505C463.506 609.858 472.139 606.284 478.504 599.92C484.87 593.556 488.447 584.924 488.448 575.923V198.2C488.448 193.743 487.571 189.329 485.866 185.211C484.161 181.094 481.661 177.352 478.51 174.2C475.358 171.048 471.617 168.548 467.5 166.842C463.382 165.136 458.969 164.258 454.512 164.257H454.505ZM477.438 575.915C477.43 581.993 475.011 587.819 470.712 592.116C466.413 596.412 460.585 598.828 454.507 598.833H300.731C294.653 598.828 288.825 596.412 284.526 592.116C280.227 587.819 277.808 581.993 277.799 575.915V198.2C277.807 192.12 280.226 186.292 284.524 181.993C288.823 177.695 294.651 175.276 300.731 175.269H315.844L316.443 176.004C317.638 177.529 318.49 179.293 318.942 181.176C319.488 183.303 320.726 185.187 322.461 186.532C324.196 187.877 326.33 188.607 328.525 188.606H426.704C428.9 188.607 431.033 187.877 432.767 186.532C434.502 185.186 435.74 183.302 436.287 181.176C436.739 179.293 437.591 177.529 438.786 176.004L439.385 175.269H454.499C460.578 175.276 466.406 177.695 470.705 181.993C475.004 186.292 477.422 192.12 477.43 198.2L477.438 575.915Z" fill="#1B1B1B"/>
<path d="M425.591 588.754H329.655C329.258 588.754 328.877 588.596 328.596 588.315C328.315 588.034 328.157 587.653 328.157 587.256C328.157 586.859 328.315 586.478 328.596 586.198C328.877 585.917 329.258 585.759 329.655 585.759H425.591C425.988 585.759 426.369 585.917 426.649 586.198C426.93 586.478 427.088 586.859 427.088 587.256C427.088 587.653 426.93 588.034 426.649 588.315C426.369 588.596 425.988 588.754 425.591 588.754Z" fill="#FFC6C6"/>
<path d="M346.078 91.0906H343.159V255.234H346.078V91.0906Z" fill="#1B1B1B"/>
<path d="M357.647 78.0608C357.617 81.4965 356.232 84.7816 353.792 87.2008C351.353 89.62 348.056 90.9774 344.62 90.9774C341.184 90.9774 337.888 89.62 335.448 87.2008C333.008 84.7816 331.623 81.4965 331.594 78.0608H357.647Z" fill="url(#paint2_linear)"/>
<path d="M163.32 129.317H158.939V531.041H163.32V129.317Z" fill="#290F7C"/>
<path d="M121.406 129.317H117.025V531.041H121.406V129.317Z" fill="#1B1B1B"/>
<path d="M161.126 533.063C160.598 533.063 160.088 532.872 159.689 532.525L117.775 496.057C117.438 495.765 117.199 495.376 117.089 494.943C116.979 494.511 117.004 494.055 117.16 493.637C117.317 493.22 117.597 492.859 117.964 492.605C118.33 492.351 118.766 492.215 119.212 492.215H161.126C161.707 492.215 162.265 492.446 162.675 492.857C163.086 493.267 163.317 493.825 163.317 494.406V530.873C163.317 531.454 163.086 532.011 162.675 532.422C162.265 532.833 161.707 533.064 161.126 533.064V533.063ZM125.068 496.598L158.943 526.067V496.598H125.068Z" fill="#1B1B1B"/>
<path d="M161.126 496.603C160.598 496.602 160.088 496.411 159.689 496.064L117.775 459.598C117.438 459.305 117.199 458.917 117.089 458.484C116.98 458.052 117.004 457.596 117.161 457.178C117.317 456.761 117.597 456.4 117.964 456.146C118.33 455.892 118.766 455.755 119.212 455.755L161.126 455.75C161.707 455.75 162.264 455.981 162.675 456.392C163.086 456.802 163.317 457.359 163.317 457.94V494.413C163.317 494.994 163.086 495.551 162.675 495.962C162.264 496.373 161.707 496.604 161.126 496.604V496.603ZM125.063 460.135L158.939 489.605V460.128L125.063 460.135Z" fill="#1B1B1B"/>
<path d="M161.126 460.13C160.598 460.13 160.088 459.939 159.689 459.593L117.775 423.125C117.438 422.832 117.199 422.443 117.089 422.011C116.979 421.578 117.004 421.123 117.16 420.705C117.317 420.287 117.597 419.927 117.964 419.672C118.33 419.418 118.766 419.282 119.212 419.282H161.126C161.707 419.282 162.265 419.513 162.675 419.924C163.086 420.335 163.317 420.892 163.317 421.473V457.94C163.317 458.521 163.086 459.078 162.675 459.489C162.265 459.9 161.707 460.131 161.126 460.131V460.13ZM125.065 423.663L158.94 453.131V423.663H125.065Z" fill="#1B1B1B"/>
<path d="M161.126 423.661C160.598 423.661 160.087 423.469 159.689 423.122L117.775 386.656C117.438 386.363 117.199 385.975 117.089 385.542C116.98 385.11 117.004 384.654 117.161 384.236C117.317 383.818 117.597 383.458 117.964 383.204C118.33 382.95 118.766 382.813 119.212 382.813H161.126C161.707 382.813 162.264 383.044 162.675 383.455C163.086 383.866 163.317 384.423 163.317 385.004V421.471C163.317 422.052 163.086 422.609 162.675 423.019C162.264 423.43 161.707 423.66 161.126 423.661V423.661ZM125.065 387.193L158.94 416.662V387.197L125.065 387.193Z" fill="#1B1B1B"/>
<path d="M161.127 387.197C160.598 387.197 160.088 387.006 159.689 386.66L117.779 350.188C117.442 349.895 117.203 349.507 117.093 349.074C116.983 348.642 117.008 348.186 117.164 347.768C117.321 347.35 117.601 346.99 117.967 346.736C118.334 346.482 118.77 346.346 119.216 346.346H161.127C161.708 346.346 162.265 346.577 162.676 346.987C163.086 347.398 163.317 347.955 163.317 348.536V385.004C163.317 385.585 163.086 386.142 162.676 386.553C162.265 386.964 161.708 387.194 161.127 387.194V387.197ZM125.065 350.73L158.941 380.199V350.73H125.065Z" fill="#1B1B1B"/>
<path d="M161.126 350.73C160.598 350.73 160.087 350.538 159.689 350.191L117.775 313.725C117.438 313.433 117.199 313.044 117.089 312.611C116.98 312.179 117.004 311.723 117.161 311.305C117.317 310.888 117.597 310.527 117.964 310.273C118.33 310.019 118.766 309.882 119.212 309.882H161.126C161.707 309.882 162.264 310.113 162.675 310.524C163.086 310.935 163.317 311.492 163.317 312.073V348.54C163.317 349.121 163.086 349.678 162.675 350.089C162.264 350.5 161.707 350.731 161.126 350.731V350.73ZM125.065 314.263L158.94 343.731V314.263H125.065Z" fill="#1B1B1B"/>
<path d="M161.127 314.27C160.598 314.27 160.088 314.079 159.689 313.733L117.779 277.266C117.442 276.973 117.203 276.584 117.093 276.152C116.983 275.719 117.008 275.264 117.164 274.846C117.321 274.428 117.601 274.068 117.967 273.814C118.334 273.559 118.77 273.423 119.216 273.423H161.127C161.708 273.423 162.265 273.654 162.676 274.065C163.086 274.476 163.317 275.033 163.317 275.614V312.077C163.317 312.658 163.086 313.215 162.676 313.626C162.265 314.036 161.708 314.267 161.127 314.267V314.27ZM125.065 277.803L158.941 307.271V277.803H125.065Z" fill="#1B1B1B"/>
<path d="M161.127 277.797C160.598 277.797 160.087 277.606 159.689 277.258L117.779 240.793C117.442 240.5 117.203 240.111 117.093 239.679C116.983 239.246 117.008 238.791 117.164 238.373C117.321 237.955 117.601 237.595 117.967 237.341C118.334 237.086 118.77 236.95 119.216 236.95H161.127C161.707 236.95 162.264 237.181 162.675 237.591C163.086 238.002 163.317 238.559 163.317 239.139V275.606C163.317 276.187 163.086 276.744 162.675 277.155C162.265 277.566 161.708 277.797 161.127 277.797ZM125.065 241.33L158.941 270.798V241.33H125.065Z" fill="#1B1B1B"/>
<path d="M161.126 241.332C160.598 241.332 160.088 241.141 159.689 240.795L117.775 204.327C117.438 204.035 117.199 203.646 117.089 203.214C116.979 202.781 117.004 202.325 117.16 201.907C117.317 201.49 117.597 201.129 117.964 200.875C118.33 200.621 118.766 200.485 119.212 200.485H161.126C161.707 200.485 162.264 200.716 162.675 201.126C163.086 201.536 163.317 202.093 163.317 202.674V239.141C163.317 239.722 163.086 240.279 162.675 240.69C162.265 241.101 161.707 241.332 161.126 241.332V241.332ZM125.065 204.864L158.94 234.333V204.864H125.065Z" fill="#1B1B1B"/>
<path d="M49.8363 79.5253H22.1578C21.8838 79.5253 21.6153 79.4482 21.383 79.3028C21.1507 79.1574 20.9641 78.9496 20.8444 78.7031C20.7247 78.4566 20.6768 78.1814 20.7062 77.9089C20.7356 77.6365 20.8411 77.3778 21.0106 77.1624L48.69 42.038C48.8777 41.7994 49.1351 41.6253 49.4263 41.5399C49.7176 41.4544 50.0282 41.4619 50.315 41.5613C50.6018 41.6606 50.8506 41.8469 51.0266 42.0942C51.2026 42.3415 51.2971 42.6375 51.2971 42.941V78.0655C51.2971 78.4526 51.1433 78.8239 50.8695 79.0977C50.5957 79.3715 50.2244 79.5253 49.8373 79.5253H49.8363ZM25.1636 76.6057H48.3765V47.1539L25.1636 76.6057Z" fill="#1B1B1B"/>
<path d="M77.5145 79.5253H49.8351C49.561 79.5253 49.2925 79.4482 49.0602 79.3028C48.828 79.1574 48.6413 78.9496 48.5216 78.7031C48.4019 78.4566 48.354 78.1814 48.3834 77.9089C48.4128 77.6365 48.5183 77.3778 48.6878 77.1624L76.3691 42.038C76.5567 41.7996 76.814 41.6257 77.105 41.5404C77.3961 41.455 77.7066 41.4626 77.9932 41.5619C78.2798 41.6613 78.5283 41.8475 78.7042 42.0947C78.88 42.3418 78.9745 42.6377 78.9743 42.941V78.0655C78.9743 78.4526 78.8205 78.8239 78.5468 79.0977C78.273 79.3715 77.9017 79.5253 77.5145 79.5253V79.5253ZM52.8445 76.6056H76.0518V47.1529L52.8445 76.6056Z" fill="#1B1B1B"/>
<path d="M161.127 204.864C160.598 204.864 160.088 204.674 159.689 204.327L117.779 167.858C117.442 167.565 117.203 167.177 117.093 166.744C116.983 166.312 117.008 165.856 117.164 165.438C117.321 165.02 117.601 164.66 117.967 164.406C118.334 164.152 118.77 164.016 119.216 164.016H161.127C161.708 164.016 162.265 164.247 162.676 164.657C163.086 165.068 163.317 165.625 163.317 166.206V202.674C163.317 203.255 163.086 203.812 162.676 204.223C162.265 204.634 161.708 204.864 161.127 204.864V204.864ZM125.068 168.392L158.943 197.862V168.392H125.068Z" fill="#1B1B1B"/>
<path d="M161.13 168.397C160.597 168.397 160.083 168.203 159.683 167.851L117.769 130.963L120.662 127.675L158.935 161.363V129.319H163.316V166.208C163.316 166.789 163.085 167.346 162.674 167.756C162.263 168.167 161.706 168.397 161.126 168.397H161.13Z" fill="#1B1B1B"/>
<path d="M166.663 531.042H113.68V565.786H166.663V531.042Z" fill="#F3F7FF"/>
<path d="M188.598 565.786H91.7488V582.024H188.598V565.786Z" fill="#1B1B1B"/>
<path d="M188.704 78.0655H117.261V129.317H188.704V78.0655Z" fill="#0F0538"/>
<path d="M84.0379 78.0655H12.595V107.164H84.0379V78.0655Z" fill="#0F0538"/>
<path d="M105.196 79.5253H1.45925C1.18522 79.5253 0.916706 79.4482 0.684475 79.3028C0.452244 79.1573 0.265638 78.9494 0.146106 78.7028C0.0265731 78.4562 -0.0210877 78.1809 0.00857163 77.9085C0.038231 77.6361 0.144057 77.3775 0.313853 77.1624L27.9913 42.038C28.1275 41.8635 28.3015 41.7223 28.5003 41.625C28.6991 41.5277 28.9173 41.477 29.1386 41.4765H77.5184C77.7397 41.477 77.958 41.5277 78.1567 41.625C78.3555 41.7223 78.5296 41.8635 78.6657 42.038L106.343 77.1624C106.513 77.3775 106.619 77.6361 106.648 77.9085C106.678 78.1809 106.63 78.4562 106.511 78.7028C106.391 78.9494 106.205 79.1573 105.973 79.3028C105.74 79.4482 105.472 79.5253 105.198 79.5253H105.196ZM4.46871 76.6056H102.186L76.8128 44.4008H29.8451L4.46871 76.6056Z" fill="#1B1B1B"/>
<path d="M201.366 79.5225H173.685C173.377 79.5226 173.077 79.4254 172.828 79.2448C172.578 79.0643 172.393 78.8095 172.297 78.517C172.201 78.2246 172.2 77.9093 172.294 77.6163C172.388 77.3233 172.573 77.0675 172.821 76.8855L200.5 56.5791C200.718 56.4194 200.975 56.3232 201.244 56.301C201.513 56.2789 201.783 56.3318 202.024 56.4537C202.264 56.5757 202.467 56.762 202.608 56.9919C202.749 57.2218 202.824 57.4864 202.824 57.7563L202.829 78.0627C202.83 78.2545 202.792 78.4445 202.719 78.6217C202.646 78.799 202.538 78.9601 202.403 79.0957C202.267 79.2314 202.106 79.3389 201.929 79.4121C201.751 79.4853 201.561 79.5228 201.37 79.5225H201.366ZM178.138 76.6029H199.906V60.6403L178.138 76.6029Z" fill="#1B1B1B"/>
<path d="M229.039 79.5225H201.359C201.052 79.522 200.752 79.4245 200.503 79.2438C200.255 79.0632 200.069 78.8086 199.973 78.5164C199.878 78.2242 199.877 77.9093 199.97 77.6164C200.064 77.3236 200.248 77.0678 200.495 76.8855L228.173 56.5791C228.391 56.4194 228.648 56.3232 228.917 56.301C229.186 56.2789 229.456 56.3318 229.697 56.4537C229.937 56.5757 230.139 56.762 230.281 56.9919C230.422 57.2218 230.497 57.4864 230.497 57.7563V78.0627C230.497 78.2542 230.459 78.444 230.386 78.621C230.313 78.7981 230.205 78.959 230.07 79.0945C229.935 79.2301 229.774 79.3376 229.597 79.4111C229.42 79.4845 229.23 79.5224 229.039 79.5225V79.5225ZM205.818 76.6029H227.579V60.6432L205.818 76.6029Z" fill="#1B1B1B"/>
<path d="M256.72 79.5225H229.039C228.731 79.5226 228.431 79.4254 228.182 79.2448C227.932 79.0643 227.747 78.8095 227.651 78.5171C227.555 78.2246 227.554 77.9093 227.648 77.6163C227.742 77.3233 227.927 77.0675 228.175 76.8855L255.857 56.5791C256.075 56.4193 256.332 56.323 256.601 56.3008C256.87 56.2787 257.14 56.3315 257.38 56.4535C257.621 56.5755 257.823 56.7618 257.964 56.9918C258.105 57.2218 258.18 57.4864 258.18 57.7563V78.0627C258.18 78.4498 258.026 78.8211 257.752 79.0949C257.478 79.3687 257.107 79.5225 256.72 79.5225V79.5225ZM233.497 76.6029H255.26V60.6432L233.497 76.6029Z" fill="#1B1B1B"/>
<path d="M284.4 79.5225H256.721C256.413 79.5226 256.113 79.4254 255.864 79.2448C255.615 79.0643 255.429 78.8095 255.333 78.517C255.237 78.2246 255.237 77.9093 255.331 77.6163C255.425 77.3233 255.609 77.0675 255.857 76.8855L283.537 56.5791C283.754 56.4194 284.012 56.3232 284.281 56.301C284.55 56.2789 284.819 56.3318 285.06 56.4537C285.301 56.5757 285.503 56.762 285.644 56.9919C285.786 57.2218 285.86 57.4864 285.86 57.7563V78.0627C285.86 78.4498 285.706 78.8211 285.433 79.0949C285.159 79.3687 284.788 79.5225 284.4 79.5225ZM261.178 76.6029H282.942V60.6432L261.178 76.6029Z" fill="#1B1B1B"/>
<path d="M312.08 79.5225H284.4C284.092 79.5224 283.792 79.4251 283.543 79.2444C283.294 79.0638 283.108 78.8091 283.013 78.5166C282.917 78.2242 282.916 77.909 283.01 77.6161C283.104 77.3231 283.289 77.0674 283.537 76.8855L311.218 56.5791C311.435 56.4193 311.693 56.323 311.962 56.3008C312.231 56.2787 312.501 56.3315 312.741 56.4535C312.982 56.5755 313.184 56.7618 313.325 56.9918C313.466 57.2218 313.541 57.4864 313.541 57.7563V78.0627C313.541 78.2545 313.503 78.4445 313.43 78.6217C313.356 78.7989 313.249 78.9599 313.113 79.0955C312.977 79.2311 312.816 79.3386 312.639 79.4119C312.462 79.4851 312.272 79.5227 312.08 79.5225V79.5225ZM288.859 76.6029H310.62V60.6432L288.859 76.6029Z" fill="#1B1B1B"/>
<path d="M339.76 79.5225H312.082C311.774 79.5224 311.474 79.4251 311.225 79.2446C310.976 79.0641 310.79 78.8096 310.694 78.5173C310.598 78.225 310.597 77.9099 310.691 77.6168C310.784 77.3238 310.968 77.0679 311.216 76.8855L338.895 56.5791C339.113 56.4194 339.37 56.3232 339.639 56.301C339.908 56.2789 340.178 56.3318 340.419 56.4537C340.66 56.5757 340.862 56.762 341.003 56.9919C341.144 57.2218 341.219 57.4864 341.219 57.7563V78.0627C341.219 78.4497 341.065 78.8208 340.792 79.0946C340.518 79.3683 340.147 79.5222 339.76 79.5225ZM316.54 76.6029H338.3V60.6432L316.54 76.6029Z" fill="#1B1B1B"/>
<path d="M367.439 79.5225H152.982C152.675 79.5226 152.375 79.4254 152.126 79.2448C151.876 79.0643 151.691 78.8095 151.595 78.517C151.499 78.2246 151.498 77.9093 151.592 77.6163C151.686 77.3232 151.871 77.0675 152.119 76.8855L179.798 56.5791C180.049 56.3962 180.351 56.2979 180.662 56.2983H339.759C340.07 56.2978 340.372 56.3961 340.623 56.5791L368.302 76.8855C368.551 77.0675 368.735 77.3232 368.829 77.6163C368.923 77.9093 368.922 78.2246 368.826 78.517C368.731 78.8095 368.545 79.0643 368.296 79.2448C368.046 79.4254 367.746 79.5226 367.439 79.5225ZM157.44 76.6028H362.981L339.281 59.2189H181.14L157.44 76.6028Z" fill="#1B1B1B"/>
<path d="M295.054 59.1646L131.897 8.83468L50.4182 44.2792L49.2532 41.6019L131.228 5.94126C131.548 5.80279 131.908 5.7832 132.241 5.88604L295.915 56.3732L295.054 59.1646Z" fill="#1B1B1B"/>
<path d="M152.982 79.5253H105.196V76.6056H116.071L130.38 6.98372C130.446 6.66529 130.616 6.37779 130.863 6.16677C131.11 5.95574 131.421 5.83324 131.746 5.81866C132.072 5.79822 132.396 5.89041 132.662 6.07981C132.929 6.26921 133.122 6.54434 133.21 6.85925L154.38 77.6509C154.446 77.8688 154.459 78.099 154.42 78.323C154.38 78.5471 154.289 78.7588 154.153 78.9413C154.017 79.1237 153.841 79.2719 153.637 79.374C153.434 79.476 153.21 79.5291 152.982 79.529V79.5253ZM119.052 76.6056H151.021L132.074 13.2478L119.052 76.6056Z" fill="#1B1B1B"/>
<path d="M131.809 14.5476C135.826 14.5476 139.083 11.291 139.083 7.27381C139.083 3.25659 135.826 0 131.809 0C127.792 0 124.535 3.25659 124.535 7.27381C124.535 11.291 127.792 14.5476 131.809 14.5476Z" fill="#CA1B23"/>
<path d="M344.619 259.578C347.018 259.578 348.963 257.633 348.963 255.234C348.963 252.835 347.018 250.89 344.619 250.89C342.22 250.89 340.275 252.835 340.275 255.234C340.275 257.633 342.22 259.578 344.619 259.578Z" fill="#1B1B1B"/>
<path d="M439.366 404.709C439.366 404.709 436.804 405.158 434.465 410.833C432.127 416.507 435.363 421.857 439.923 419.629C444.484 417.401 439.366 411.945 439.366 404.709Z" fill="#F6E0B3"/>
<path d="M528.624 464.887C515.928 464.633 503.74 465.037 497.723 467.066C497.723 467.066 497.281 532.102 497.723 554.153C498.164 576.204 499.164 595.581 499.164 595.581H510.522L532.905 520.078C527.696 500.249 528.398 471.222 528.624 464.887Z" fill="#1B1B1B"/>
<path d="M570.324 467.386V599.257H561.972C561.972 599.257 554.622 583.555 546.939 565.85C540.885 551.914 535.673 531.561 533.722 523.53C533.468 522.341 533.201 521.191 532.908 520.087C527.696 500.257 528.404 471.231 528.631 464.897C536.85 465.057 545.268 465.513 552.378 465.98C552.538 465.98 552.698 465.993 552.858 466.007C555.61 466.194 558.163 466.381 560.408 466.556C560.876 466.596 561.316 466.623 561.755 466.662C567.008 467.066 570.324 467.386 570.324 467.386Z" fill="#1B1B1B"/>
<path d="M570.325 599.252C570.325 599.252 569.804 597.006 568.895 593.076C568.446 591.111 567.894 588.72 567.265 585.98C566.636 583.24 566.036 580.126 565.354 576.745C564.672 573.364 563.924 569.677 563.258 565.774C562.563 561.872 561.735 557.77 561.12 553.496C560.464 549.219 559.703 544.812 559.101 540.319C558.499 535.827 557.791 531.259 557.257 526.676C556.695 522.09 556.161 517.505 555.707 512.992C555.213 508.488 554.809 504.038 554.424 499.722C553.995 495.418 553.756 491.251 553.463 487.294C553.222 483.339 552.955 479.61 552.808 476.15C552.594 472.382 552.461 468.963 552.379 465.969C552.539 465.969 552.699 465.982 552.859 465.996C553.033 468.962 553.261 472.37 553.541 476.112C553.768 479.555 554.115 483.288 554.422 487.23C554.782 491.172 555.171 495.327 555.57 499.631C555.97 503.934 556.426 508.357 556.946 512.86C557.414 517.378 557.994 521.947 558.576 526.517C559.083 531.086 559.751 535.65 560.34 540.142C560.901 544.634 561.636 549.032 562.251 553.305C562.866 557.578 563.598 561.69 564.197 565.599C564.796 569.509 565.467 573.203 566.081 576.597C566.695 579.991 567.256 583.117 567.752 585.88C568.287 588.634 568.755 591.038 569.142 593.017L570.325 599.252Z" fill="white"/>
<path d="M570.484 489.34L570.324 489.995L570.164 490.636C561.519 488.592 560.368 474.387 560.409 466.542C560.877 466.583 561.317 466.61 561.756 466.649C561.756 474.135 562.825 487.33 570.322 489.295L570.484 489.34Z" fill="white"/>
<path d="M570.991 419.853C570.991 419.853 570.35 450.098 573.144 462.431C573.378 463.505 573.177 464.628 572.584 465.554C571.99 466.48 571.054 467.132 569.98 467.367C569.767 467.413 569.551 467.443 569.334 467.455C555.182 468.353 517.993 470.274 497.722 467.067V403.154H465.757C465.757 403.154 480.35 393.132 483.691 387.345C487.031 381.557 488.581 361.501 493.259 353.269C497.937 345.037 521.922 336.659 521.922 336.659L552.698 337.448C552.698 337.448 572.328 346.132 579.01 354.38C582.044 358.123 581.308 371.043 579.317 384.448C576.924 400.57 572.686 417.422 570.991 419.853Z" fill="#F8B739"/>
<path d="M526.644 330.906C524.563 332.658 522.855 334.81 521.621 337.235C520.387 339.659 519.651 342.306 519.457 345.019C518.956 354.039 531.155 360.891 544.349 353.535C557.544 346.179 554.621 330.316 545.098 330.15C538.937 330.076 532.778 330.328 526.644 330.906V330.906Z" fill="#FFCE76"/>
<path d="M516.872 298.139C516.872 298.139 516.871 322.188 518.649 326.98C520.427 331.773 524.886 333.551 527.446 332.103V336.894C527.446 336.894 523.715 342.017 529.979 343.771C536.243 345.526 546.098 342.935 545.679 335.587V325.899L547.6 323.978C547.6 323.978 552.777 320.135 552.69 317.213C552.603 314.29 545.424 306.358 545.424 306.358C545.424 306.358 533.074 295.606 516.872 298.139Z" fill="#F6E0B3"/>
<path d="M517.86 447.434L497.721 467.064V451.202C504.445 445.229 517.86 447.434 517.86 447.434Z" fill="#E29F27"/>
<path d="M541.48 304.932C541.48 304.932 522.215 310.388 514.422 300.14C506.628 289.893 508.296 274.968 518.314 275.084C528.333 275.2 528.225 287.111 528.225 287.111C528.225 287.111 539.918 282.879 546.043 286.888C552.169 290.897 551.501 294.238 551.501 294.238C551.501 294.238 557.18 292.01 559.63 301.257C562.08 310.503 554.839 319.966 552.057 321.301C550.484 322.037 548.992 322.933 547.602 323.974C547.602 323.974 553.03 318.462 549.773 316.038C546.517 313.615 543.092 317.624 543.092 319.461C543.097 319.456 540.033 314.952 541.48 304.932Z" fill="#1B1B1B"/>
<path d="M617.986 393.571H439.366V447.915H617.986V393.571Z" fill="#A1DD70"/>
<path d="M507.278 450.499C507.278 450.499 499.611 453.928 494.265 452.927C488.92 451.926 488.03 447.916 488.03 447.916H503.736L507.278 450.499Z" fill="#F6E0B3"/>
<path d="M597.495 412.92H498.193V416.599H597.495V412.92Z" fill="white"/>
<path d="M578.341 424.888H498.193V428.567H578.341V424.888Z" fill="white"/>
<path d="M499.164 595.578C496.431 598.408 493.229 600.744 489.7 602.482C484.354 604.932 483.574 607.827 494.431 606.936C505.288 606.046 510.752 602.928 510.633 599.252L510.522 595.577" fill="#572121"/>
<path d="M561.972 599.252C561.972 599.252 552.508 605.265 552.174 607.827C551.84 610.389 562.976 608.716 567.095 606.049C568.249 605.368 569.173 604.358 569.749 603.147C570.324 601.937 570.525 600.582 570.324 599.257L561.972 599.252Z" fill="#572121"/>
<path d="M530.735 393.571C530.735 393.571 544.264 387.233 546.937 374.645V393.571H530.735Z" fill="#E29F27"/>
<path d="M579.317 384.441C576.922 400.57 572.688 417.421 570.989 419.853C564.532 427.433 508.624 451.482 508.624 451.482L503.733 447.914C503.733 447.914 546.04 408.72 546.935 401.144C547.831 393.568 546.935 374.641 546.935 374.641L579.317 384.441Z" fill="#F8B739"/>
<path d="M503.736 393.571V376.756C503.736 376.756 499.667 390.839 492.659 393.571H503.736Z" fill="#E29F27"/>
<path d="M527.451 332.102V336.893C526.67 337.992 526.299 339.33 526.403 340.674L536.348 327.232C533.455 331.24 527.451 332.102 527.451 332.102Z" fill="#E0C492"/>
<path d="M465.757 440.008C476.396 440.008 485.021 431.383 485.021 420.744C485.021 410.104 476.396 401.479 465.757 401.479C455.117 401.479 446.492 410.104 446.492 420.744C446.492 431.383 455.117 440.008 465.757 440.008Z" fill="white"/>
<path d="M462.504 430.553L454.456 422.506L457.819 419.142L462.506 423.829L473.7 412.632L477.064 415.995L462.504 430.553Z" fill="#A1DD70"/>
<path d="M450.031 263.409H283.041C280.832 263.409 279.041 265.2 279.041 267.409V301.519C279.041 303.728 280.832 305.519 283.041 305.519H450.031C452.241 305.519 454.031 303.728 454.031 301.519V267.409C454.031 265.2 452.241 263.409 450.031 263.409Z" fill="#E4313A"/>
<path d="M400.718 278.298H324.307V281.129H400.718V278.298Z" fill="white"/>
<path d="M385.98 287.507H324.307V290.338H385.98V287.507Z" fill="white"/>
<path d="M301.508 299.142C309.695 299.142 316.332 292.505 316.332 284.318C316.332 276.131 309.695 269.494 301.508 269.494C293.321 269.494 286.684 276.131 286.684 284.318C286.684 292.505 293.321 299.142 301.508 299.142Z" fill="white"/>
<path d="M298.914 290.881L292.721 284.688L295.309 282.1L298.916 285.706L307.53 277.091L310.118 279.678L298.914 290.881Z" fill="#E4313A"/>
<path d="M450.031 312.07H283.04C280.831 312.07 279.04 313.861 279.04 316.07V337.079C279.04 339.288 280.831 341.079 283.04 341.079H450.031C452.24 341.079 454.031 339.288 454.031 337.079V316.07C454.031 313.861 452.24 312.07 450.031 312.07Z" fill="#E4313A"/>
<path d="M362.61 322.296H310.13V324.24H362.61V322.296Z" fill="white"/>
<path d="M352.488 328.62H310.13V330.565H352.488V328.62Z" fill="white"/>
<path d="M294.471 336.611C300.094 336.611 304.653 332.053 304.653 326.43C304.653 320.807 300.094 316.249 294.471 316.249C288.848 316.249 284.29 320.807 284.29 326.43C284.29 332.053 288.848 336.611 294.471 336.611Z" fill="white"/>
<path d="M292.69 330.937L288.437 326.684L290.214 324.907L292.691 327.384L298.607 321.466L300.385 323.244L292.69 330.937Z" fill="#E4313A"/>
<path d="M287.196 355.727H199.409V403.734H287.196V355.727Z" fill="#FF9234"/>
<path d="M280.567 355.727H199.409V403.734H280.567V355.727Z" fill="#FFCD3C"/>
<path d="M280.569 388.232C280.569 388.232 271.739 408.018 263.751 420.54C260.027 426.38 256.477 430.641 254.1 430.59C250.736 430.513 246.3 426.975 242.454 423.102C239.364 419.948 236.484 416.596 233.831 413.067V471.317C233.854 471.46 233.864 471.602 233.897 471.745C233.93 471.887 233.953 471.996 233.974 472.113C234.104 472.632 234.311 473.128 234.588 473.586C234.719 473.794 234.862 473.991 235.004 474.177C235.029 474.216 235.059 474.253 235.092 474.286C235.371 474.635 235.56 475.047 235.644 475.486C235.727 475.925 235.703 476.378 235.572 476.805C235.442 477.232 235.209 477.621 234.894 477.938C234.58 478.255 234.192 478.491 233.766 478.625C226.161 481.196 218.275 482.851 210.277 483.554C188.345 484.671 174.782 477.595 171.901 475.918C171.517 475.699 171.332 475.567 171.332 475.567V439.261C170.653 439.284 169.885 439.284 169.065 439.261C160.64 438.999 145.883 435.996 146.004 428.032C146.135 419.356 159.753 376.793 168.468 369.99C168.544 369.935 168.61 369.881 168.676 369.826C169.517 369.215 170.403 368.669 171.328 368.194C179.566 363.878 189.004 365.455 189.004 365.455H211.606C211.701 365.447 211.796 365.443 211.891 365.444C212 365.444 212.154 365.433 212.329 365.433C213.282 365.411 215.101 365.4 217.379 365.565C217.609 365.575 217.851 365.587 218.091 365.62C218.157 365.631 218.222 365.631 218.3 365.642C224.03 366.133 232.016 367.729 236.388 372.516C243.695 380.558 254.278 405.021 255.746 404.112C257.214 403.202 273.999 382.375 273.999 382.375L280.569 388.232Z" fill="#F3F7FF"/>
<path d="M171.332 368.195V439.264H169.061C160.637 439.001 145.88 435.999 146.001 428.034C146.132 419.358 159.749 376.795 168.465 369.992C168.541 369.937 168.607 369.883 168.673 369.828C169.516 369.216 170.405 368.67 171.332 368.195V368.195Z" fill="#F3F7FF"/>
<path d="M233.768 478.616C226.162 481.188 218.277 482.843 210.279 483.546C188.346 485.047 174.75 477.654 171.902 475.91C171.519 475.691 171.333 475.559 171.333 475.559V439.26C171.333 427.483 168.682 391.932 168.682 391.932L168.671 391.921C164.694 384.096 165.944 376.208 168.266 370.174C168.332 370.119 168.409 370.051 168.475 369.987C168.541 369.924 168.617 369.878 168.683 369.823C171.483 367.854 174.668 366.498 178.028 365.846C181.64 365.102 185.35 364.969 189.006 365.452H211.608C211.702 365.443 211.797 365.44 211.892 365.441C212.001 365.43 212.155 365.43 212.33 365.43C214.015 365.39 215.698 365.434 217.381 365.561C217.611 365.572 217.853 365.584 218.093 365.617C218.162 365.615 218.232 365.619 218.301 365.627V365.635C217.86 371.863 218.357 378.121 219.774 384.201C222.7 398.082 233.841 413.047 233.841 413.047V471.297C233.863 471.44 233.874 471.582 233.907 471.725C233.929 471.847 233.951 471.976 233.983 472.093C234.114 472.612 234.32 473.108 234.597 473.566C234.723 473.772 234.862 473.969 235.013 474.157C235.039 474.196 235.068 474.233 235.1 474.266C235.379 474.616 235.569 475.029 235.652 475.468C235.736 475.908 235.711 476.361 235.579 476.789C235.448 477.217 235.214 477.606 234.898 477.923C234.583 478.24 234.194 478.476 233.767 478.609L233.768 478.616Z" fill="url(#paint3_linear)"/>
<path d="M178.026 365.851C170.029 376.938 168.681 391.935 168.681 391.935L168.67 391.924C164.693 384.099 165.943 376.212 168.265 370.177C168.331 370.122 168.408 370.054 168.474 369.99C168.54 369.927 168.616 369.882 168.682 369.826C171.482 367.858 174.666 366.503 178.026 365.851V365.851Z" fill="#FFAB01"/>
<path d="M233.832 413.058V420.31C226.485 413.294 220.537 404.948 216.303 395.715C211.351 384.343 211.132 371.503 211.362 365.456H211.608C211.702 365.447 211.797 365.444 211.892 365.445C212.001 365.434 212.155 365.434 212.33 365.434C214.014 365.394 215.698 365.437 217.381 365.565C217.611 365.576 217.852 365.588 218.093 365.621C218.162 365.619 218.232 365.623 218.301 365.631V365.642C217.86 371.869 218.356 378.128 219.774 384.208C222.689 398.092 233.832 413.058 233.832 413.058Z" fill="#FFAB01"/>
<path d="M171.331 475.559C171.331 475.559 170.926 565.526 171.474 586.067C172.022 606.607 171.187 625.506 171.187 625.506H180.24C180.24 625.506 198.369 566.621 202.478 539.78C202.478 539.78 213.106 606.335 220.775 629.616H230.087L233.769 478.617L171.331 475.559Z" fill="#1B1B1B"/>
<path d="M171.332 468.723V475.557C171.332 475.557 171.518 475.689 171.901 475.909C174.749 477.651 188.35 485.045 210.277 483.544C218.275 482.84 226.16 481.185 233.766 478.614C234.192 478.48 234.58 478.244 234.894 477.927C235.209 477.61 235.442 477.221 235.572 476.794C235.703 476.367 235.727 475.914 235.644 475.475C235.56 475.036 235.37 474.625 235.092 474.275C235.059 474.242 235.03 474.205 235.004 474.167C234.853 473.978 234.714 473.781 234.589 473.575C234.312 473.117 234.105 472.621 233.975 472.102C233.942 471.979 233.92 471.85 233.898 471.734C233.898 471.734 204.649 480.78 171.332 468.723Z" fill="#FFAB01"/>
<path d="M180.48 624.717C177.458 625.552 174.267 625.552 171.246 624.717C171.246 624.717 169.392 632.082 171.186 636.87C172.98 641.658 182.157 637.418 189.275 633.034C196.394 628.65 201.6 624.954 200.231 621.668C198.863 618.382 191.129 619.681 180.48 624.717Z" fill="black"/>
<path d="M220.774 629.614C220.774 629.614 219.336 631.189 219.336 635.506C219.336 639.823 219.61 641.189 223.307 641.737C227.004 642.285 244.464 640.299 247.751 634.136C251.038 627.973 240.972 630.781 236.522 631.055C232.071 631.329 230.086 629.616 230.086 629.616L220.774 629.614Z" fill="black"/>
<path d="M280.568 388.232C280.568 388.232 291.984 382.979 287.196 373.118C287.196 373.118 286.002 376.954 280.568 379.28C280.568 379.28 281.478 375.172 280.568 374.076C279.658 372.981 275.044 377.402 273.995 382.381L280.568 388.232Z" fill="#F0B7A4"/>
<path d="M220.367 356.144C219.375 357.501 218.041 358.57 216.502 359.244C214.962 359.917 213.272 360.171 211.602 359.98V365.453H189.002V356.139C189.002 356.139 185.309 334.228 189.002 327.918C192.694 321.627 222.144 319.844 222.144 319.844C222.144 319.844 224.202 351.346 220.367 356.144Z" fill="#F0B7A4"/>
<path d="M209.268 342.217C209.268 342.217 206.256 342.491 203.975 338.748C201.694 335.005 194.845 335.918 195.759 341.395C196.673 346.872 203.154 344.499 205.253 351.437C207.352 358.375 181.061 363.535 172.846 348.881C164.631 334.228 167.368 304.421 192.2 297.48C217.032 290.54 227.622 309.714 224.519 319.575C221.416 329.437 204.796 324.14 209.268 342.217Z" fill="#1B1B1B"/>
<path d="M241.633 369.057H269.433C269.649 369.057 269.863 369.099 270.062 369.182C270.261 369.264 270.443 369.385 270.595 369.538C270.748 369.691 270.869 369.872 270.951 370.072C271.034 370.271 271.076 370.485 271.076 370.701V370.701C271.076 370.917 271.034 371.13 270.951 371.33C270.868 371.529 270.747 371.71 270.595 371.863C270.442 372.015 270.261 372.136 270.062 372.219C269.862 372.301 269.649 372.343 269.433 372.343H241.633C241.417 372.343 241.203 372.301 241.004 372.219C240.804 372.136 240.623 372.015 240.471 371.863C240.318 371.71 240.197 371.529 240.114 371.33C240.032 371.13 239.989 370.917 239.989 370.701V370.701C239.989 370.485 240.031 370.271 240.114 370.072C240.196 369.872 240.317 369.691 240.47 369.538C240.623 369.385 240.804 369.264 241.003 369.182C241.203 369.099 241.417 369.057 241.633 369.057Z" fill="#F3F7FF"/>
<path d="M249.759 378.088H261.309C261.525 378.088 261.738 378.13 261.938 378.213C262.137 378.296 262.319 378.417 262.471 378.569C262.624 378.722 262.745 378.903 262.827 379.103C262.91 379.302 262.952 379.516 262.952 379.732V379.732C262.952 379.948 262.909 380.162 262.827 380.361C262.744 380.56 262.623 380.741 262.471 380.894C262.318 381.046 262.137 381.167 261.937 381.25C261.738 381.332 261.524 381.375 261.309 381.375H249.759C249.543 381.375 249.329 381.332 249.13 381.25C248.931 381.167 248.749 381.046 248.597 380.894C248.444 380.741 248.323 380.56 248.241 380.361C248.158 380.162 248.115 379.948 248.115 379.732C248.115 379.516 248.158 379.302 248.24 379.103C248.323 378.903 248.444 378.722 248.596 378.569C248.749 378.417 248.93 378.296 249.13 378.213C249.329 378.13 249.543 378.088 249.759 378.088V378.088Z" fill="#FF9234"/>
<path d="M211.604 359.978V365.456H206.568L201.824 357.238C204.526 359.65 211.604 359.978 211.604 359.978Z" fill="#F18C8E"/>
<path d="M320.976 514.339H288.224C283.056 514.339 278.866 518.529 278.866 523.697V556.449C278.866 561.617 283.056 565.807 288.224 565.807H320.976C326.145 565.807 330.334 561.617 330.334 556.449V523.697C330.334 518.529 326.145 514.339 320.976 514.339Z" fill="#00D1F7"/>
<path d="M323.724 539.822C323.724 537.284 320.542 534.88 315.676 533.389C316.799 528.423 316.301 524.472 314.099 523.207C313.566 522.907 312.962 522.756 312.35 522.77V524.511C312.659 524.502 312.966 524.571 313.24 524.714C314.302 525.323 314.763 527.642 314.403 530.625C314.317 531.358 314.177 532.131 314.005 532.92C312.372 532.527 310.715 532.243 309.045 532.069C308.051 530.697 306.965 529.393 305.797 528.165C308.342 525.8 310.731 524.504 312.356 524.504V522.761C310.208 522.761 307.396 524.291 304.555 526.946C301.713 524.307 298.902 522.792 296.755 522.792V524.534C298.371 524.534 300.768 525.822 303.314 528.172C302.151 529.395 301.073 530.697 300.089 532.068C298.416 532.24 296.756 532.527 295.123 532.927C294.943 532.147 294.81 531.389 294.717 530.663C294.35 527.681 294.803 525.361 295.856 524.744C296.132 524.597 296.442 524.527 296.755 524.541V522.8C296.138 522.787 295.529 522.938 294.99 523.237C292.795 524.503 292.304 528.445 293.436 533.396C288.58 534.894 285.418 537.293 285.418 539.822C285.418 542.352 288.599 544.765 293.465 546.256C292.342 551.222 292.84 555.173 295.042 556.438C295.578 556.738 296.185 556.889 296.799 556.875C298.946 556.875 301.758 555.345 304.599 552.69C307.441 555.329 310.252 556.844 312.4 556.844C313.017 556.857 313.626 556.706 314.165 556.407C316.359 555.142 316.851 551.199 315.718 546.248C320.561 544.757 323.724 542.352 323.724 539.822ZM313.558 534.615C313.268 535.622 312.909 536.66 312.504 537.703C312.184 537.078 311.849 536.453 311.481 535.831C311.113 535.209 310.739 534.598 310.358 534.005C311.465 534.161 312.535 534.365 313.558 534.614V534.615ZM309.981 542.93C309.372 543.984 308.748 544.983 308.099 545.912C306.936 546.013 305.76 546.069 304.57 546.069C303.381 546.069 302.212 546.014 301.056 545.92C300.408 544.991 299.778 544.002 299.167 542.952C298.574 541.929 298.032 540.893 297.543 539.845C298.026 538.799 298.572 537.752 299.159 536.73C299.768 535.676 300.392 534.676 301.041 533.747C302.204 533.646 303.38 533.591 304.569 533.591C305.759 533.591 306.928 533.645 308.083 533.74C308.731 534.669 309.361 535.658 309.973 536.707C310.566 537.73 311.107 538.766 311.597 539.815C311.106 540.86 310.567 541.906 309.981 542.93ZM312.508 541.915C312.93 542.961 313.288 544.007 313.585 545.022C312.562 545.272 311.484 545.483 310.367 545.648C310.75 545.047 311.133 544.431 311.49 543.797C311.848 543.162 312.18 542.539 312.503 541.915H312.508ZM304.59 550.243C303.824 549.448 303.099 548.614 302.419 547.745C303.122 547.775 303.84 547.799 304.567 547.799C305.293 547.799 306.026 547.783 306.738 547.745C306.066 548.617 305.348 549.452 304.586 550.246L304.59 550.243ZM298.781 545.644C297.672 545.48 296.602 545.277 295.579 545.027C295.868 544.02 296.228 542.981 296.633 541.939C296.953 542.564 297.288 543.188 297.656 543.811C298.024 544.433 298.394 545.053 298.777 545.647L298.781 545.644ZM304.551 529.395C305.317 530.19 306.041 531.024 306.722 531.893C306.019 531.863 305.3 531.839 304.574 531.839C303.848 531.839 303.114 531.855 302.403 531.893C303.072 531.024 303.788 530.19 304.547 529.398L304.551 529.395ZM298.772 533.994C298.389 534.595 298.007 535.211 297.649 535.845C297.292 536.48 296.954 537.094 296.634 537.717C296.212 536.671 295.854 535.624 295.557 534.609C296.575 534.372 297.652 534.161 298.768 533.997L298.772 533.994ZM291.706 543.77C288.942 542.591 287.154 541.045 287.154 539.819C287.154 538.594 288.942 537.04 291.706 535.869C292.378 535.579 293.11 535.322 293.869 535.08C294.346 536.702 294.933 538.291 295.625 539.834C294.941 541.37 294.362 542.951 293.892 544.566C293.115 544.327 292.382 544.061 291.702 543.773L291.706 543.77ZM295.907 554.929C294.845 554.319 294.384 552.001 294.744 549.018C294.83 548.285 294.97 547.512 295.142 546.723C296.775 547.116 298.432 547.4 300.102 547.573C301.097 548.946 302.182 550.25 303.35 551.477C300.805 553.843 298.416 555.139 296.791 555.139C296.482 555.144 296.177 555.073 295.903 554.93L295.907 554.929ZM314.428 548.979C314.795 551.961 314.342 554.281 313.288 554.898C313.012 555.045 312.702 555.115 312.39 555.101C310.774 555.101 308.376 553.812 305.831 551.462C306.994 550.239 308.071 548.937 309.055 547.566C310.729 547.394 312.388 547.107 314.022 546.707C314.196 547.457 314.331 548.216 314.426 548.981L314.428 548.979ZM317.434 543.771C316.762 544.06 316.03 544.318 315.271 544.56C314.793 542.937 314.207 541.349 313.514 539.805C314.199 538.27 314.778 536.689 315.248 535.074C316.02 535.317 316.754 535.581 317.442 535.87C320.206 537.05 321.995 538.595 321.995 539.821C321.995 541.047 320.194 542.6 317.43 543.773L317.434 543.771Z" fill="white"/>
<path d="M304.562 543.39C306.533 543.39 308.13 541.793 308.13 539.822C308.13 537.852 306.533 536.254 304.562 536.254C302.591 536.254 300.994 537.852 300.994 539.822C300.994 541.793 302.591 543.39 304.562 543.39Z" fill="white"/>
<path d="M382.738 514.339H349.986C344.818 514.339 340.628 518.529 340.628 523.697V556.449C340.628 561.617 344.818 565.807 349.986 565.807H382.738C387.906 565.807 392.096 561.617 392.096 556.449V523.697C392.096 518.529 387.906 514.339 382.738 514.339Z" fill="#3293D4"/>
<path d="M358.851 523.698C358.347 523.705 357.853 523.842 357.416 524.094C356.979 524.347 356.614 524.707 356.356 525.141L348.488 538.811C348.243 539.252 348.115 539.749 348.115 540.254C348.115 540.759 348.243 541.255 348.488 541.697L356.356 555.367C356.614 555.8 356.979 556.16 357.416 556.413C357.853 556.666 358.347 556.802 358.851 556.809H374.59C375.095 556.802 375.589 556.666 376.026 556.413C376.462 556.16 376.827 555.8 377.085 555.367L384.954 541.697C385.199 541.255 385.327 540.759 385.327 540.254C385.327 539.749 385.199 539.252 384.954 538.811L377.085 525.141C376.827 524.707 376.462 524.347 376.026 524.094C375.589 523.842 375.095 523.705 374.59 523.698H358.851ZM358.994 531.695C359.016 531.693 359.039 531.693 359.061 531.695H361.775C361.835 531.697 361.894 531.714 361.946 531.745C361.997 531.776 362.041 531.819 362.071 531.871L366.677 540.074C366.7 540.115 366.715 540.159 366.721 540.206C366.727 540.16 366.742 540.115 366.765 540.074L371.359 531.871C371.391 531.818 371.436 531.773 371.49 531.742C371.544 531.712 371.605 531.695 371.667 531.695H374.38C374.439 531.701 374.495 531.72 374.545 531.751C374.595 531.783 374.637 531.825 374.667 531.876C374.697 531.926 374.715 531.983 374.719 532.042C374.723 532.1 374.713 532.159 374.69 532.213L370.198 540.255L374.69 548.285C374.715 548.339 374.727 548.399 374.724 548.459C374.721 548.519 374.704 548.577 374.673 548.629C374.643 548.681 374.601 548.724 374.55 548.756C374.5 548.789 374.442 548.808 374.382 548.813H371.669C371.605 548.812 371.544 548.794 371.49 548.761C371.435 548.728 371.391 548.682 371.361 548.626L366.767 540.419C366.744 540.379 366.729 540.334 366.723 540.287C366.717 540.334 366.702 540.379 366.679 540.419L362.074 548.625C362.045 548.679 362.002 548.725 361.95 548.757C361.898 548.79 361.839 548.809 361.777 548.812H359.063C359.003 548.807 358.945 548.788 358.895 548.756C358.844 548.723 358.802 548.68 358.772 548.628C358.742 548.576 358.724 548.518 358.721 548.458C358.718 548.398 358.73 548.338 358.755 548.284L363.247 540.254L358.753 532.213C358.73 532.164 358.719 532.11 358.719 532.056C358.719 532.002 358.731 531.948 358.754 531.899C358.777 531.85 358.81 531.806 358.852 531.771C358.893 531.736 358.942 531.71 358.994 531.696V531.695Z" fill="white"/>
<path d="M444.5 514.339H411.747C406.579 514.339 402.39 518.529 402.39 523.697V556.449C402.39 561.617 406.579 565.807 411.747 565.807H444.5C449.668 565.807 453.857 561.617 453.857 556.449V523.697C453.857 518.529 449.668 514.339 444.5 514.339Z" fill="#00C7FA"/>
<path d="M419.718 545.621L414.555 540.46L431.318 523.698H441.641L419.718 545.621ZM441.641 539.165H431.318L427.45 543.032L432.616 548.195" fill="white"/>
<path d="M427.451 553.092L431.319 556.959H441.642L432.614 547.931" fill="white"/>
<path d="M422.433 548.066L427.587 542.91L432.741 548.065L427.587 553.221L422.433 548.066Z" fill="white"/>
<path d="M320.976 448.835H288.224C283.056 448.835 278.866 453.024 278.866 458.192V490.945C278.866 496.113 283.056 500.303 288.224 500.303H320.976C326.145 500.303 330.334 496.113 330.334 490.945V458.192C330.334 453.024 326.145 448.835 320.976 448.835Z" fill="#367CF7"/>
<path d="M304.267 466.932C302.821 466.932 301.407 467.361 300.205 468.164C299.003 468.967 298.066 470.109 297.512 471.445C296.959 472.781 296.814 474.251 297.096 475.669C297.378 477.088 298.075 478.39 299.097 479.413C300.12 480.435 301.422 481.132 302.841 481.414C304.259 481.696 305.729 481.551 307.065 480.998C308.401 480.444 309.543 479.507 310.346 478.305C311.149 477.103 311.578 475.689 311.578 474.243C311.578 472.304 310.808 470.444 309.437 469.073C308.066 467.702 306.206 466.932 304.267 466.932V466.932Z" fill="white"/>
<path d="M314.765 467.58C316.604 467.58 318.095 466.089 318.095 464.25C318.095 462.41 316.604 460.919 314.765 460.919C312.925 460.919 311.434 462.41 311.434 464.25C311.434 466.089 312.925 467.58 314.765 467.58Z" fill="white"/>
<path d="M318.865 467.597L318.726 467.291L318.508 467.545C317.962 468.164 317.272 468.64 316.498 468.929L316.28 469.007L316.367 469.225C317.543 472.054 317.692 475.205 316.787 478.131C315.883 481.058 313.983 483.576 311.416 485.248C308.85 486.92 305.779 487.641 302.736 487.286C299.693 486.93 296.871 485.521 294.759 483.302C292.647 481.083 291.379 478.195 291.173 475.139C290.968 472.082 291.839 469.051 293.636 466.569C295.432 464.088 298.04 462.314 301.008 461.555C303.976 460.796 307.116 461.1 309.883 462.414L310.088 462.507L310.181 462.289C310.507 461.531 311.016 460.865 311.661 460.349L311.923 460.131L311.623 459.976C309.352 458.796 306.829 458.182 304.269 458.189C300.803 458.189 297.431 459.312 294.656 461.389C291.882 463.467 289.855 466.387 288.878 469.712C287.902 473.038 288.029 476.59 289.24 479.837C290.451 483.085 292.681 485.853 295.596 487.727C298.512 489.601 301.956 490.481 305.413 490.234C308.87 489.987 312.155 488.628 314.774 486.359C317.394 484.09 319.209 481.033 319.947 477.647C320.685 474.26 320.306 470.726 318.867 467.573L318.865 467.597Z" fill="white"/>
<path d="M382.738 448.835H349.986C344.818 448.835 340.628 453.024 340.628 458.192V490.945C340.628 496.113 344.818 500.303 349.986 500.303H382.738C387.906 500.303 392.096 496.113 392.096 490.945V458.192C392.096 453.024 387.906 448.835 382.738 448.835Z" fill="#EF3E31"/>
<path d="M366.521 479.173H362.134L360.056 484.359H356.184L366.521 461.181V461.199V457.257L349.986 463.152L352.512 485.015L366.521 492.778V479.173Z" fill="white"/>
<path d="M363.501 475.977H366.52V468.712L363.501 475.977Z" fill="white"/>
<g opacity="0.9">
<path opacity="0.9" d="M366.521 479.173H370.908L372.986 484.359H376.857L366.521 461.181V461.199V457.257L383.056 463.152L380.529 485.015L366.521 492.778V479.173Z" fill="white"/>
<path opacity="0.9" d="M369.54 475.977H366.521V468.712L369.54 475.977Z" fill="white"/>
</g>
<path d="M703.994 591.023C700.996 577.328 707.472 573.907 713.732 570.606C718.85 567.902 723.681 565.352 723.426 557.284C723.083 546.583 730.373 542.693 736.805 539.259C741.588 536.7 746.103 534.291 746.781 529.42C748.403 517.707 759.205 503.146 759.315 503.001L759.988 503.502C759.878 503.647 749.203 518.037 747.611 529.538C746.877 534.827 742.177 537.338 737.201 539.997C730.681 543.479 723.936 547.076 724.262 557.258C724.539 565.849 719.245 568.645 714.123 571.344C707.863 574.65 701.95 577.772 704.812 590.843L703.994 591.023Z" fill="url(#paint4_linear)"/>
<path fill-rule="evenodd" clip-rule="evenodd" d="M707.282 587.532C707.137 587.532 706.996 587.528 706.851 587.514C704.143 587.317 701.488 585.255 698.494 581.043L698.309 580.775L698.516 580.529C698.564 580.471 703.361 574.628 701.602 563.655C701.189 561.096 700.639 559.135 700.2 557.561C699.553 555.266 699.131 553.75 699.843 552.541C700.745 551.002 703.189 550.197 710.074 548.557C717.407 546.812 719.856 538.551 722.019 531.266C724.059 524.399 725.989 517.927 731.692 518.125C736.932 518.327 744.894 510.115 751.92 502.874C758.435 496.151 764.586 489.82 768.521 489.948C769.466 489.983 770.262 490.379 770.891 491.126C774.394 495.298 771.124 501.634 767.962 507.762C765.263 512.985 762.713 517.923 764.353 521.18C766.415 525.269 766.705 528.971 765.188 531.881C763.395 535.328 759.213 537.549 752.759 538.485C746.859 539.342 746.222 545.774 745.545 552.589C744.758 560.542 743.865 569.55 733.965 570.408C726.609 571.045 721.654 576.207 717.28 580.762C713.802 584.384 710.782 587.532 707.282 587.532ZM699.36 580.81C702.086 584.582 704.556 586.503 706.913 586.679C710.202 586.925 713.2 583.799 716.678 580.181C721.153 575.521 726.222 570.236 733.89 569.577C743.1 568.777 743.918 560.507 744.71 552.51C745.422 545.357 746.09 538.604 752.641 537.654C758.813 536.762 762.783 534.691 764.445 531.495C765.83 528.835 765.54 525.397 763.606 521.559C761.772 517.918 764.419 512.796 767.215 507.376C770.253 501.493 773.397 495.413 770.249 491.663C769.774 491.1 769.198 490.81 768.49 490.783C764.933 490.669 758.906 496.872 752.518 503.454C745.118 511.082 737.473 518.969 731.876 518.969C731.801 518.969 731.731 518.969 731.661 518.965C726.6 518.776 724.851 524.676 722.824 531.503C720.599 539.008 718.071 547.515 710.267 549.375C704.042 550.857 701.321 551.683 700.564 552.963C700.033 553.868 700.397 555.174 701.004 557.337C701.453 558.929 702.007 560.911 702.429 563.523C704.064 573.718 700.305 579.535 699.36 580.81Z" fill="url(#paint5_linear)"/>
<path fill-rule="evenodd" clip-rule="evenodd" d="M707.585 584.661C707.489 584.661 707.392 584.657 707.295 584.648C702.85 584.244 699.434 574.514 696.132 565.106C694.567 560.643 693.086 556.427 691.644 553.719C690.527 551.622 689.107 549.432 687.735 547.313C684.073 541.677 680.292 535.847 681.523 530.734C682.169 528.039 684.099 525.801 687.427 523.884C694.704 519.69 693.587 517.32 691.134 512.133C689.331 508.321 686.865 503.107 686.772 494.898C686.728 491.368 686.649 488.317 686.574 485.626C686.341 476.974 686.227 472.63 688.074 471.061C688.839 470.41 689.911 470.243 691.441 470.533C694.062 471.034 695.196 473.149 696.396 475.387C697.926 478.244 699.658 481.485 704.895 482.579C709.805 483.608 714.532 485.006 715.837 488.273C716.752 490.568 715.886 493.588 713.182 497.501C712.527 498.451 712.303 499.255 712.496 499.968C712.923 501.546 715.371 502.685 718.207 504.008C722.239 505.89 727.259 508.233 728.68 513.082C729.827 516.991 728.499 521.866 724.626 527.986C715.464 542.468 715.833 552.29 716.158 560.951C716.4 567.374 716.629 573.437 712.756 580.212C711.045 583.202 709.353 584.661 707.585 584.661ZM690.131 471.232C689.476 471.232 688.984 471.386 688.619 471.698C687.076 473.008 687.194 477.484 687.414 485.604C687.485 488.299 687.568 491.35 687.608 494.885C687.7 502.913 690.122 508.035 691.89 511.772C694.325 516.925 695.794 520.029 687.845 524.61C684.728 526.408 682.925 528.474 682.336 530.927C681.189 535.693 684.873 541.369 688.434 546.86C689.819 548.993 691.252 551.195 692.387 553.323C693.855 556.089 695.345 560.331 696.924 564.829C699.988 573.56 703.466 583.461 707.37 583.813C708.86 583.949 710.425 582.599 712.03 579.794C715.78 573.23 715.569 567.555 715.323 560.982C714.993 552.198 714.62 542.24 723.918 527.542C727.655 521.633 728.948 516.982 727.875 513.32C726.56 508.831 721.931 506.672 717.851 504.768C714.826 503.357 712.215 502.139 711.687 500.187C711.423 499.225 711.687 498.191 712.492 497.026C715.024 493.36 715.864 490.599 715.059 488.585C713.899 485.679 709.181 484.334 704.723 483.402C699.104 482.223 697.192 478.653 695.658 475.782C694.506 473.637 693.512 471.782 691.287 471.355C690.852 471.276 690.47 471.232 690.131 471.232Z" fill="url(#paint6_linear)"/>
<path d="M707.674 589.854L706.878 589.603C711.353 575.451 703.255 543.699 700.841 535.97C699.654 532.172 700.749 526.452 701.813 520.917C703.18 513.772 704.6 506.386 700.987 503.617C694.203 498.416 694.559 486.382 694.577 485.872L695.416 485.903C695.412 486.022 695.056 498.016 701.497 502.953C705.519 506.035 704.051 513.68 702.635 521.075C701.593 526.505 700.516 532.119 701.642 535.72C704.627 545.278 712.14 575.736 707.674 589.854Z" fill="url(#paint7_linear)"/>
<path d="M673.807 497.932C671.943 493.201 664.663 493.918 665.335 500.609C666.004 507.301 670.686 514.436 663.55 525.81C656.415 537.184 672.695 539.413 678.494 546.548C684.293 553.688 686.298 563.501 691.204 569.744C696.111 575.991 699.456 590.931 703.47 585.356C707.484 579.781 703.708 572.531 704.152 562.494C704.6 552.457 713.53 546.104 704.6 539.637C695.667 533.17 686.68 531.187 689.63 516.599C690.932 510.163 679.606 512.651 673.807 497.932Z" fill="url(#paint8_linear)"/>
<path d="M709.973 586.648C709.921 586.349 704.961 556.955 693.856 548.896C682.535 540.679 680.477 533.091 676.521 515.192L677.338 515.012C681.247 532.69 683.273 540.182 694.348 548.219C705.731 556.475 710.598 585.29 710.8 586.512L709.973 586.648Z" fill="white"/>
<path d="M699.953 585.593C702.152 580.155 701.25 573.569 697.245 565.835C691.24 554.238 686.381 556.023 700.855 547.098C715.332 538.177 700.947 510.071 713.27 506.505C725.594 502.935 736.299 457.445 745.668 463.239C755.037 469.029 742.546 491.337 749.238 498.029C755.929 504.72 756.822 513.236 742.99 520.13C729.159 527.023 752.808 553.345 734.07 561.373C715.332 569.405 720.705 600.893 699.953 585.593Z" fill="url(#paint9_linear)"/>
<path d="M705.677 594.25C705.655 594.144 703.637 583.694 710.003 570.197C716.488 556.445 719.592 541.409 718.308 529.978C717.609 523.788 721.575 521.37 725.413 519.026C729.19 516.718 733.094 514.335 732.878 508.237C732.685 502.729 735.015 489.812 735.112 489.266L735.938 489.416C735.916 489.548 733.524 502.79 733.714 508.207C733.947 514.797 729.831 517.312 725.848 519.738C722.072 522.047 718.506 524.227 719.139 529.886C720.445 541.461 717.31 556.664 710.764 570.553C704.521 583.786 706.477 593.982 706.495 594.083L705.677 594.25Z" fill="white"/>
<path d="M720.815 536.599C725.022 532.691 730.588 532.128 729.427 537.922C728.271 543.721 724.292 545.379 726.284 549.019C728.271 552.664 731.582 556.308 725.95 560.78C720.318 565.255 717.17 565.748 715.517 574.198C713.859 582.643 714.189 588.416 706.9 588.776C699.615 589.132 702.429 578.502 704.75 573.701C707.067 570.047 707.454 565.818 705.906 561.021C703.589 553.824 699.118 549.938 708.557 547.493C718.001 545.045 717.979 539.232 720.815 536.599Z" fill="white"/>
<path d="M707.428 594.175C707.406 593.142 706.905 568.808 711.455 564.71C716.107 560.529 716.999 553.134 717.118 549.103C717.272 543.844 724.064 540.723 724.35 540.595L724.697 541.356C724.631 541.387 718.094 544.394 717.953 549.125C717.804 554.216 716.652 561.162 712.018 565.334C707.749 569.177 708.259 593.907 708.268 594.158L707.428 594.175Z" fill="url(#paint10_linear)"/>
<path d="M724.525 584.244L716.972 612.887H700.103L692.55 584.244H724.525Z" fill="url(#paint11_linear)"/>
<path d="M724.525 584.244C713.442 586.323 707.902 595.872 707.902 612.887H700.103L692.55 584.244H724.525Z" fill="url(#paint12_linear)"/>
<path d="M373.799 506.131C372.557 503.961 372.919 499.97 374.889 494.16C377.739 485.727 387.607 486.49 390.746 491.894C393.88 497.293 392.822 500.649 388.203 506.749C383.583 512.849 375.713 508.92 373.799 506.131Z" fill="#EEA886"/>
<path d="M396.723 656.138C397.046 658.526 397.23 659.901 397.274 660.262C397.313 660.619 399.122 660.513 402.706 659.945L403.14 655.682C399.311 655.648 397.168 655.804 396.723 656.138Z" fill="#EEA886"/>
<path d="M397.213 659.806C396.078 661.242 394.965 662.277 393.868 662.901C392.221 663.841 389.633 664.214 388.659 665.188C387.957 665.889 386.098 668.917 392.939 668.856C399.773 668.795 403.074 669.284 403.803 668.121C404.293 667.348 403.942 664.498 402.745 659.561C401.627 659.878 399.785 659.956 397.213 659.806Z" fill="#414773"/>
<path d="M359.522 656.138C359.851 658.526 360.035 659.901 360.073 660.262C360.112 660.619 361.927 660.513 365.506 659.945L365.945 655.682C362.111 655.648 359.973 655.804 359.522 656.138Z" fill="#EEA886"/>
<path d="M360.018 659.806C358.882 661.242 357.769 662.277 356.667 662.901C355.025 663.841 348.964 664.615 347.99 665.589C347.289 666.29 346.12 669.123 355.738 668.856C362.573 668.667 365.873 669.284 366.608 668.121C367.097 667.348 366.741 664.498 365.545 659.561C364.131 659.812 362.289 659.895 360.018 659.806Z" fill="#414773"/>
<path d="M394.914 566.981C396.751 572.686 397.547 577.996 397.308 582.916C396.94 590.29 398.732 598.366 399.462 606.069C400.274 614.663 403.608 635 403.73 639.597C403.808 642.658 403.636 649.081 403.213 658.865L396.54 659.021C392.805 635.323 390.451 622.26 389.488 619.844C388.035 616.215 380.839 590.352 380.594 587.446C380.432 585.515 385.208 578.691 394.914 566.981Z" fill="#1B1B1B"/>
<path d="M367.253 566.091C364.554 581.179 363.04 590.224 362.717 593.235C362.233 597.754 361.91 615.086 361.671 617.907C361.431 620.729 360.057 654.83 358.765 659.021H366.207C371.299 642.497 373.843 630.325 373.843 622.505C373.843 610.772 378.902 597.003 382.169 589.261C385.431 581.524 392.905 581.341 394.915 566.981C378.284 563.352 369.062 563.052 367.253 566.091Z" fill="#1B1B1B"/>
<path d="M376.498 508.43C377.055 510.061 377.055 511.458 376.498 512.615C375.936 513.779 379.509 514.012 387.218 513.317C386.867 510.912 387.196 508.725 388.203 506.749C389.21 504.773 385.309 505.335 376.498 508.43Z" fill="#EEA886"/>
<path d="M395.449 568.846C392.677 571.695 383.154 571.473 366.88 568.178L367.253 566.091L395.003 567.137L395.449 568.846Z" fill="#2B3B57"/>
<path d="M374.745 513.183C371.9 513.473 370.069 513.695 369.257 513.851C368.038 514.085 359.823 512.382 358.142 512.209C356.456 512.037 349.27 507.111 349.037 506.532C348.808 505.953 344.667 495.473 344.434 493.208C344.206 490.943 340.404 492.111 340.732 493.67C341.339 496.592 342.124 503.682 342.552 505.736C343.014 507.957 344.256 512.983 344.951 513.601C345.653 514.218 352.12 519.138 358.448 521.226C362.673 522.623 366.374 524.348 369.552 526.402H400.759C408.846 514.831 412.981 508.18 413.153 506.432C413.415 503.822 404.677 486.445 402.935 484.264C401.772 482.817 400.352 483.05 398.672 484.976C402.15 495.195 404.126 501.028 404.588 502.48C405.289 504.656 398.516 514.229 396.657 514.257C394.798 514.285 390.022 513.678 387.902 513.589C386.488 513.528 385.036 513.194 383.544 512.571L374.745 513.183Z" fill="#EEA886"/>
<path d="M361.298 524.771C363.841 526.463 365.233 528.767 365.467 531.667C365.812 536.025 367.209 542.91 367.904 545.264C368.606 547.618 367.298 564.694 367.12 565.913C366.947 567.137 391.269 570.031 395.004 567.137C395.699 556.501 396.195 549.677 396.484 546.655C396.924 542.125 399.011 531.149 399.712 529.663C400.408 528.183 408.857 516.328 409.207 514.764C406.291 510.116 403.792 507.762 401.699 507.706C398.377 511.597 396.178 513.634 395.093 513.806C393.468 514.068 383.511 512.242 383.511 512.226C382.787 513.216 380.494 513.127 376.648 511.964C372.056 512.482 369.39 512.788 368.645 512.883C367.743 512.999 364.148 512.604 357.869 511.703C355.348 515.955 354.313 519.161 354.753 521.303L361.298 524.771Z" fill="#FF9234"/>
<path d="M344.656 494.571C344.083 491.878 344.144 490.147 344.829 489.373C345.413 488.711 346.821 486.963 346.949 486.707C347.077 486.451 348.586 485.583 348.586 485.165C348.586 484.748 347.111 484.236 345.825 485.421C344.539 486.612 343.738 486.868 343.226 486.74C342.708 486.612 341.974 482.343 341.907 481.28C341.846 480.223 341.434 477.429 340.771 477.624C340.332 477.752 340.12 478.225 340.143 479.037C339.63 477.624 339.202 477.056 338.857 477.334C338.517 477.613 338.367 478.091 338.412 478.781C337.766 477.986 337.36 477.88 337.187 478.459C337.02 479.037 337.02 479.583 337.187 480.095C336.525 479.728 336.174 480 336.13 480.896C336.068 482.243 336.419 486.195 337.126 487.603C337.833 489.017 340.476 492.712 340.788 494.154C341 495.117 342.291 495.256 344.656 494.571Z" fill="#EEA886"/>
<path d="M399.523 487.475C397.586 484.225 396.29 482.449 395.627 482.16C394.642 481.726 393.251 481.481 392.026 480.607C390.807 479.733 389.199 479.01 389.282 478.72C389.371 478.431 390.807 478.542 392.349 479.21C393.891 479.878 394.564 479.555 394.709 479.21C394.854 478.859 393.891 476.399 393.423 475.821C392.956 475.236 389.644 471.908 390.201 471.412C390.752 470.917 392.9 472.748 393.251 473.127C392.104 470.728 391.759 469.47 392.204 469.353C392.65 469.236 393.29 469.604 394.119 470.455C394.024 468.401 395.082 469.041 397.286 472.37C396.824 471.268 396.93 470.9 397.609 471.268C398.622 471.819 399.612 474.93 399.93 476.5C400.247 478.063 401.699 483.061 402.935 484.264C403.759 485.071 402.618 486.139 399.523 487.475Z" fill="#EEA886"/>
<path d="M388.203 506.749C387.184 506.838 385.592 506.51 383.422 505.764C380.166 504.64 379.927 498.952 379.22 499.625C377.784 501 376.431 500.048 375.886 499.235C376.949 497.844 377.233 496.809 376.743 496.135C376.248 495.467 375.608 494.883 374.806 494.393C376.331 487.041 380.567 485.043 387.507 488.393C395.639 492.317 395.872 498.434 388.203 506.749Z" fill="#353A3D"/>
<path d="M376.498 512.615L376.86 511.024C381.29 510.935 384.719 511.063 387.134 511.413L387.518 513.317C384.418 514.725 380.745 514.491 376.498 512.615Z" fill="#D4D8E8"/>
<path d="M378.134 498.228C378.741 497.226 380.973 496.547 381.234 499.391C381.434 501.595 377.243 504 377.205 501.946C377.166 499.892 377.733 498.896 378.134 498.228Z" fill="#EEA886"/>
<path d="M344.495 493.653C342.897 493.692 341.712 494.059 340.938 494.761C340.883 495.206 340.949 495.607 341.128 495.952C342.513 495.306 343.738 494.922 344.801 494.805C344.784 494.221 344.684 493.837 344.495 493.653Z" fill="#E55353"/>
<path d="M341.668 494.248C341.451 494.772 341.696 495.378 342.219 495.601C342.742 495.824 343.349 495.579 343.571 495.05C343.788 494.527 343.543 493.92 343.02 493.703C342.497 493.48 341.89 493.725 341.668 494.248Z" fill="#353A3D"/>
<defs>
<linearGradient id="paint0_linear" x1="589.533" y1="188.341" x2="589.533" y2="257.755" gradientUnits="userSpaceOnUse">
<stop stop-color="#E4313A"/>
<stop offset="1" stop-color="#CA1B23"/>
</linearGradient>
<linearGradient id="paint1_linear" x1="383.126" y1="164.257" x2="383.126" y2="246.882" gradientUnits="userSpaceOnUse">
<stop stop-color="#CA1B23"/>
<stop offset="1" stop-color="#E4313A"/>
</linearGradient>
<linearGradient id="paint2_linear" x1="344.62" y1="78.0608" x2="344.62" y2="90.9774" gradientUnits="userSpaceOnUse">
<stop stop-color="#1B1B1B"/>
<stop offset="1" stop-color="#00205A"/>
</linearGradient>
<linearGradient id="paint3_linear" x1="200.898" y1="365.168" x2="200.898" y2="483.746" gradientUnits="userSpaceOnUse">
<stop stop-color="#E4313A"/>
<stop offset="1" stop-color="#CA1B23"/>
</linearGradient>
<linearGradient id="paint4_linear" x1="705.396" y1="501.243" x2="759.986" y2="501.243" gradientUnits="userSpaceOnUse">
<stop stop-color="#2B7CA5"/>
<stop offset="1" stop-color="#5BA446"/>
</linearGradient>
<linearGradient id="paint5_linear" x1="698.308" y1="488.191" x2="770.459" y2="488.191" gradientUnits="userSpaceOnUse">
<stop stop-color="#2B7CA5"/>
<stop offset="1" stop-color="#5BA446"/>
</linearGradient>
<linearGradient id="paint6_linear" x1="682.244" y1="468.64" x2="728.355" y2="468.64" gradientUnits="userSpaceOnUse">
<stop stop-color="#2B7CA5"/>
<stop offset="1" stop-color="#5BA446"/>
</linearGradient>
<linearGradient id="paint7_linear" x1="694.865" y1="484.114" x2="706.567" y2="484.114" gradientUnits="userSpaceOnUse">
<stop stop-color="#2B7CA5"/>
<stop offset="1" stop-color="#5BA446"/>
</linearGradient>
<linearGradient id="paint8_linear" x1="666.164" y1="493.244" x2="704.475" y2="493.244" gradientUnits="userSpaceOnUse">
<stop stop-color="#2B7CA5"/>
<stop offset="1" stop-color="#5BA446"/>
</linearGradient>
<linearGradient id="paint9_linear" x1="670.849" y1="623.486" x2="705.688" y2="488" gradientUnits="userSpaceOnUse">
<stop stop-color="#2B7CA5"/>
<stop offset="1" stop-color="#5BA446"/>
</linearGradient>
<linearGradient id="paint10_linear" x1="707.886" y1="538.835" x2="724.696" y2="538.835" gradientUnits="userSpaceOnUse">
<stop stop-color="#2B7CA5"/>
<stop offset="1" stop-color="#5BA446"/>
</linearGradient>
<linearGradient id="paint11_linear" x1="692.552" y1="582.484" x2="724.524" y2="582.484" gradientUnits="userSpaceOnUse">
<stop stop-color="#FF8E4C"/>
<stop offset="1" stop-color="#FFC95A"/>
</linearGradient>
<linearGradient id="paint12_linear" x1="692.552" y1="582.484" x2="724.524" y2="582.484" gradientUnits="userSpaceOnUse">
<stop stop-color="#D27138"/>
<stop offset="1" stop-color="#FFC95A"/>
</linearGradient>
</defs>
</svg>
